<?xml version="1.0" encoding="utf-8"?>
<!-- Generator: Adobe Illustrator 25.0.1, SVG Export Plug-In . SVG Version: 6.00 Build 0)  -->
<svg version="1.1" id="OBJECTS" xmlns="http://www.w3.org/2000/svg" xmlns:xlink="http://www.w3.org/1999/xlink" x="0px" y="0px"
	 viewBox="0 0 73.2 73.2" style="enable-background:new 0 0 73.2 73.2;" xml:space="preserve">
<style type="text/css">
	.st0{fill:#292D36;}
</style>
<path class="st0" d="M73,33.2L73,33.2l-10.2-5.6l-3.7-2l-3.4-1.8l-3.7-2l-9.4-5l0.1-5.4c-0.1-4.2-2.9-11.1-6.3-11.3h-0.1
	c0,0,0,0,0,0h0c-3.5,0-6.2,7.2-6.1,11.5l0.2,5l-30,17.4c0,1.6,0.7,3,1.7,4.1c1.1,1.2,2.7,1.9,4.3,1.9c0.5,0,0.9-0.1,1.4-0.2l5-1.2
	c1.2-0.3,2.4-0.5,3.7-0.8v2.2c0,0.5,0.4,0.9,0.9,0.9h1.1c0.5,0,0.9-0.4,0.9-0.9v-2.7l0,0c0.9-0.1,1.7-0.2,2.6-0.3l0,0V39
	c0,0.5,0.4,0.9,0.9,0.9h1.1c0.5,0,0.9-0.4,0.9-0.9v-2.4c2.1-0.1,4.1-0.2,6.2-0.2l0.4,9.4l0.1,3.1l0.4,9.3l-8.9,10.1
	c-0.8,0.9,0,2.3,1.2,2l10.1-2.2c0.2,0.5,0.3,0.9,0.5,1.4c0.6,1.6,1.1,2.9,1.5,3.8l0,0c0,0.1,0.1,0.1,0.1,0.2c0,0,1.3-1.4,2.5-4.2
	c0-0.1,0.1-0.2,0.1-0.3c0.1-0.3,0.3-0.7,0.4-1.1l10.8,2.3c1.2,0.2,2-1.2,1.2-2l-9.6-10.8l0.2-8.8l0-3.1l0-2.3l0.1-3.1l0-2.3l0-0.9
	l0,0h0.1c1.9-0.1,3.7-0.1,5.6-0.1l0,0v1.7c0,0.8,0.7,1.5,1.5,1.5c0.8,0,1.5-0.7,1.5-1.5v-1.5c0.9,0,1.7,0.1,2.6,0.2l0,0v2.2
	c0,0.8,0.7,1.5,1.5,1.5c0.8,0,1.5-0.7,1.5-1.5v-1.9c1.5,0.2,3,0.4,4.5,0.7l4.8,0.9l0.1,0l0.1,0c0.1,0,0.2,0,0.3,0h0
	c0.1,0,0.2,0,0.3,0c0,0,0,0,0,0c0,0,0.1,0,0.1,0c0,0,0,0,0,0c0,0,0.1,0,0.1,0c0,0,0.1,0,0.1,0H67c0,0,0,0,0,0c0,0,0.1,0,0.1,0
	c0,0,0.1,0,0.1,0c0,0,0,0,0,0c0,0,0,0,0,0h0c0.2,0,0.4,0,0.6-0.1c0.2,0,0.4-0.1,0.5-0.1c0.1,0,0.2-0.1,0.4-0.1c0,0,0.1,0,0.1,0
	c0.1,0,0.3-0.1,0.4-0.2c0,0,0.1,0,0.1,0c0.1-0.1,0.3-0.1,0.4-0.2c0,0,0,0,0.1,0c0.1-0.1,0.3-0.2,0.4-0.2c0,0,0,0,0,0
	c0.4-0.3,0.8-0.6,1.2-1c0,0,0,0,0,0l0,0C72.4,36.1,73,34.7,73,33.2z M55.5,27.2c1,0.6,0.4,2.2-0.7,2c-4.1-0.6-9.3-0.9-12.5,0.3
	l0.2-10.1L55.5,27.2z M33.9,3.2l4.6-0.1c0.5,0.6,0.8,1.3,1.1,2.1l-6.7,0.1C33.1,4.5,33.4,3.8,33.9,3.2z M18.3,29.3
	c-1.2,0.2-1.7-1.4-0.7-2l12.8-7.8l0.4,9.9C27.6,28.3,22.3,28.7,18.3,29.3z M29.4,66.8c-0.8,0.1-1.3-0.8-0.8-1.4l3.7-4.2
	c0.1,0.3,0.1,0.7,0.2,1.1c0,0,0,0.1,0,0.1c0.1,0.3,0.2,0.7,0.3,1.1c0.1,0.3,0.2,0.6,0.3,0.9c0,0.1,0,0.2,0.1,0.3
	c0.1,0.4,0.3,0.9,0.4,1.3c0,0.1,0,0.2,0,0.2L29.4,66.8z M45.2,65.4c0.5,0.6,0,1.6-0.8,1.4l-4.3-0.7c0,0,0,0,0,0c0,0,0,0,0,0
	c0,0,0,0,0,0c0,0,0,0,0-0.1c0,0,0-0.1,0-0.1c0-0.1,0-0.1,0.1-0.2c0-0.1,0.1-0.2,0.1-0.2c0,0,0-0.1,0-0.1c0.3-1,0.9-2.7,1.2-4.2
	L45.2,65.4z"/>
</svg>
